<?xml version="1.0"?>
<svg width="512" height="512" xmlns="http://www.w3.org/2000/svg" xmlns:svg="http://www.w3.org/2000/svg" version="1.0">
	<path
		d="m362.51,107.78c6.46,3.81 22.29,-8.52 31.66,-24.66c9.37,-16.14 12.28,-36.09 5.81,-39.9c-6.46,-3.81 -22.29,8.52 -31.66,24.66c-9.37,16.14 -12.28,36.09 -5.81,39.9z"
		fill="#8B5A2B" />
	<path
		d="m389.85,40.62c-13.01,-15.86 -41.03,-34.02 -71.09,-38.59c-30.06,-4.57 -47.12,6.74 -49.16,20.31c-2.03,13.59 26,31.74 56.05,36.3c30.06,4.57 77.19,-2.16 64.19,-18.03z"
		fill="#3E721D" />
	<g transform="matrix(10.9742 0 0 9.59397 -149.816 -87.3593)">
		<path
			d="m53.61,53.25c-3.08,4.31 -10.54,6.72 -17.75,7.94c-7.21,1.21 -13.14,1.5 -16.24,0.77c-3.09,-0.73 -6.03,-4.31 -5.77,-7.93c0.26,-3.63 3.97,-7.17 7.09,-11c6.36,-7.82 5.86,-7.97 7.53,-12.7c1.67,-4.73 5.98,-8.88 8.65,-10.33c4.3,-2.32 6.98,-1.99 11.11,-1.47c4.13,0.53 7.43,2.37 8.99,4.76c3.6,5.49 3.25,11.14 2.49,16.11c-0.77,4.97 -3.02,9.54 -6.1,13.85z"
			fill="#FFB347" />
		<g>
			<path
				d="m38.13,32.91c0,0 3.8,-6.7 -0.3,-6.89c-4.09,-0.2 -7.79,11.4 -9.49,15.42c-1.84,4.36 -8.16,7.61 -7.92,11.44c0.24,3.83 12.27,-11.04 12.27,-11.04"
				fill="#F9EBB2" />
		</g>
	</g>
</svg>