<?xml version="1.0" encoding="UTF-8"?>
<svg xmlns="http://www.w3.org/2000/svg" xmlns:xlink="http://www.w3.org/1999/xlink" width="128px" height="128px" viewBox="0 0 128 128" version="1.1">
<g id="surface1">
<path style=" stroke:none;fill-rule:nonzero;fill:rgb(54.509804%,35.294118%,16.862745%);fill-opacity:1;" d="M 90.628906 26.945312 C 92.242188 27.898438 96.199219 24.816406 98.542969 20.78125 C 100.886719 16.746094 101.613281 11.757812 99.996094 10.804688 C 98.378906 9.851562 94.421875 12.933594 92.078125 16.96875 C 89.738281 21.003906 89.011719 25.992188 90.628906 26.945312 Z M 90.628906 26.945312 "/>
<path style=" stroke:none;fill-rule:nonzero;fill:rgb(24.313725%,44.705882%,11.372549%);fill-opacity:1;" d="M 97.460938 10.15625 C 94.210938 6.191406 87.203125 1.648438 79.691406 0.507812 C 72.175781 -0.636719 67.910156 2.191406 67.398438 5.585938 C 66.890625 8.984375 73.898438 13.519531 81.414062 14.660156 C 88.925781 15.800781 100.710938 14.121094 97.460938 10.152344 Z M 97.460938 10.15625 "/>
<path style=" stroke:none;fill-rule:nonzero;fill:rgb(100%,70.196078%,27.843137%);fill-opacity:1;" d="M 109.628906 105.878906 C 101.175781 116.21875 80.710938 121.996094 60.929688 124.925781 C 41.148438 127.824219 24.878906 128.523438 16.375 126.769531 C 7.898438 125.019531 -0.167969 116.433594 0.542969 107.75 C 1.257812 99.042969 11.4375 90.554688 19.996094 81.367188 C 37.445312 62.609375 36.074219 62.25 40.65625 50.90625 C 45.238281 39.5625 57.0625 29.609375 64.386719 26.128906 C 76.183594 20.566406 83.535156 21.355469 94.867188 22.605469 C 106.199219 23.875 115.253906 28.289062 119.53125 34.019531 C 129.410156 47.1875 128.449219 60.742188 126.363281 72.660156 C 124.25 84.582031 118.078125 95.542969 109.628906 105.878906 Z M 109.628906 105.878906 "/>
<path style=" stroke:none;fill-rule:nonzero;fill:rgb(97.647059%,92.156863%,69.803922%);fill-opacity:1;" d="M 67.15625 57.09375 C 67.15625 57.09375 77.582031 41.023438 66.335938 40.570312 C 55.113281 40.089844 44.960938 67.910156 40.296875 77.554688 C 35.25 88.011719 17.910156 95.804688 18.570312 104.992188 C 19.226562 114.179688 52.234375 78.511719 52.234375 78.511719 "/>
</g>
</svg>
